# xmcd CD database file
#
# Track frame offsets:
#	150
#	13335
#	25693
#	38815
#	53123
#	67018
#	87751
#	101342
#	115501
#	132409
#	145992
#	167153
#	184457
#	200976
#
# Disc length: 2979 seconds
#
# Revision: 0
# Processed by: cddbd v1.5.1PL0 Copyright (c) Steve Scherf et al.
# Submitted via: CDex 1.51
#
DISCID=c80ba10e
DTITLE=John Anderson - Ultimate Hits
DYEAR=2004
DGENRE=Country
TTITLE0=Swingin
TTITLE1=Straight Tequila Night
TTITLE2=Ive Got It Made
TTITLE3=1959
TTITLE4=Money In The Bank
TTITLE5=When It Comes To You
TTITLE6=Would You Catch A Falling Star
TTITLE7=Black Sheep
TTITLE8=I Just Came Home To Count The Memories
TTITLE9=Wild and Blue
TTITLE10=Bend It Till It Breaks
TTITLE11=Im Just An Old Chunk of Coal(But Im Going To Be A Diamond Someday)
TTITLE12=Wish I Could Have Been There
TTITLE13=Seminole Wind
EXTD=YEAR: 2004
EXTT0=
EXTT1=
EXTT2=
EXTT3=
EXTT4=
EXTT5=
EXTT6=
EXTT7=
EXTT8=
EXTT9=
EXTT10=
EXTT11=
EXTT12=
EXTT13=
PLAYORDER=
